<svg width="48" height="48" viewBox="0 0 48 48" fill="none" xmlns="http://www.w3.org/2000/svg">
<path d="M24 48C37.2548 48 48 37.2548 48 24C48 10.7452 37.2548 0 24 0C10.7452 0 0 10.7452 0 24C0 37.2548 10.7452 48 24 48Z" fill="#E82935" fill-opacity="0.17"/>
<path fill-rule="evenodd" clip-rule="evenodd" d="M29.545 17L24 13L18.455 17L12 13V31L18.455 35L24 31L29.545 35L36 31V13L29.545 17ZM19 19.073L23 16.187V29.255L19 32.14V19.073ZM30 32.366L34 29.887V16.592L30 19.071V32.366Z" fill="#EE5963"/>
</svg>
